<svg xmlns="http://www.w3.org/2000/svg" xmlns:xlink="http://www.w3.org/1999/xlink" width="150" zoomAndPan="magnify" viewBox="0 0 112.5 74.999997" height="100" preserveAspectRatio="xMidYMid meet" version="1.2"><defs/><g id="d557c34698"><g style="fill:#292828;fill-opacity:1;"><g transform="translate(8.868544, 47.817688)"><path style="stroke:none" d="M 17.328125 -20.359375 C 17.648438 -20.359375 17.929688 -20.234375 18.171875 -19.984375 C 18.421875 -19.742188 18.546875 -19.460938 18.546875 -19.140625 L 18.546875 -17.15625 L 12.859375 -17.15625 C 12.816406 -15.582031 12.828125 -14.070312 12.890625 -12.625 C 12.953125 -11.175781 13.113281 -9.925781 13.375 -8.875 C 13.632812 -7.832031 14.046875 -7.128906 14.609375 -6.765625 C 15.015625 -6.523438 15.414062 -6.441406 15.8125 -6.515625 C 16.21875 -6.597656 16.503906 -6.5 16.671875 -6.21875 C 16.953125 -5.65625 16.757812 -5.09375 16.09375 -4.53125 C 15.425781 -3.96875 14.476562 -3.515625 13.25 -3.171875 C 12.019531 -2.828125 10.660156 -2.65625 9.171875 -2.65625 C 7.285156 -2.65625 5.707031 -3.097656 4.4375 -3.984375 C 3.164062 -4.867188 2.53125 -6.238281 2.53125 -8.09375 L 2.53125 -17.15625 L 1.140625 -17.15625 C 0.859375 -17.15625 0.597656 -17.273438 0.359375 -17.515625 C 0.117188 -17.753906 0 -18.015625 0 -18.296875 L 0 -19.140625 C 0 -19.460938 0.117188 -19.710938 0.359375 -19.890625 C 0.597656 -20.078125 0.859375 -20.234375 1.140625 -20.359375 C 2.023438 -20.671875 2.929688 -21.332031 3.859375 -22.34375 C 4.785156 -23.351562 5.722656 -24.441406 6.671875 -25.609375 C 7.617188 -26.773438 8.554688 -27.78125 9.484375 -28.625 C 10.410156 -29.46875 11.296875 -29.890625 12.140625 -29.890625 C 12.546875 -29.890625 12.976562 -29.789062 13.4375 -29.59375 C 13.894531 -29.394531 14.046875 -28.671875 13.890625 -27.421875 C 13.890625 -27.378906 13.796875 -26.671875 13.609375 -25.296875 C 13.429688 -23.929688 13.265625 -22.285156 13.109375 -20.359375 Z M 17.328125 -20.359375 "/></g></g><g style="fill:#292828;fill-opacity:1;"><g transform="translate(28.011472, 47.817688)"><path style="stroke:none" d="M 20.65625 -12.140625 C 21.09375 -12.660156 21.503906 -12.8125 21.890625 -12.59375 C 22.273438 -12.375 22.425781 -12 22.34375 -11.46875 L 22.21875 -10.875 C 21.863281 -9.300781 21.160156 -7.898438 20.109375 -6.671875 C 19.066406 -5.441406 17.78125 -4.460938 16.25 -3.734375 C 14.71875 -3.015625 13.046875 -2.65625 11.234375 -2.65625 C 9.179688 -2.65625 7.304688 -3.128906 5.609375 -4.078125 C 3.921875 -5.023438 2.5625 -6.289062 1.53125 -7.875 C 0.507812 -9.46875 0 -11.210938 0 -13.109375 C 0 -15.035156 0.507812 -16.796875 1.53125 -18.390625 C 2.5625 -19.984375 3.921875 -21.25 5.609375 -22.1875 C 7.304688 -23.132812 9.179688 -23.609375 11.234375 -23.609375 C 13.242188 -23.609375 15.082031 -23.222656 16.75 -22.453125 C 18.425781 -21.691406 19.628906 -20.609375 20.359375 -19.203125 C 20.796875 -18.316406 20.851562 -17.378906 20.53125 -16.390625 C 20.207031 -15.410156 19.625 -14.492188 18.78125 -13.640625 C 17.9375 -12.796875 16.945312 -12.113281 15.8125 -11.59375 C 14.6875 -11.070312 13.5625 -10.8125 12.4375 -10.8125 C 11.914062 -10.8125 11.398438 -10.847656 10.890625 -10.921875 C 10.390625 -11.003906 9.941406 -11.128906 9.546875 -11.296875 C 10.148438 -9.960938 11.082031 -9.113281 12.34375 -8.75 C 13.613281 -8.394531 14.992188 -8.507812 16.484375 -9.09375 C 17.972656 -9.675781 19.363281 -10.691406 20.65625 -12.140625 Z M 11.234375 -21.25 C 10.710938 -21.25 10.28125 -20.875 9.9375 -20.125 C 9.59375 -19.382812 9.335938 -18.5 9.171875 -17.46875 C 9.015625 -16.445312 8.9375 -15.492188 8.9375 -14.609375 C 8.9375 -14.003906 9 -13.421875 9.125 -12.859375 C 9.15625 -12.941406 9.273438 -13.023438 9.484375 -13.109375 C 10.410156 -13.671875 11.082031 -14.40625 11.5 -15.3125 C 11.925781 -16.21875 12.175781 -17.125 12.25 -18.03125 C 12.332031 -18.9375 12.273438 -19.695312 12.078125 -20.3125 C 11.878906 -20.9375 11.597656 -21.25 11.234375 -21.25 Z M 11.234375 -21.25 "/></g></g><g style="fill:#292828;fill-opacity:1;"><g transform="translate(50.898448, 47.817688)"><path style="stroke:none" d="M 20.65625 -12.140625 C 21.09375 -12.660156 21.503906 -12.8125 21.890625 -12.59375 C 22.273438 -12.375 22.425781 -12 22.34375 -11.46875 L 22.21875 -10.875 C 21.863281 -9.300781 21.160156 -7.898438 20.109375 -6.671875 C 19.066406 -5.441406 17.78125 -4.460938 16.25 -3.734375 C 14.71875 -3.015625 13.046875 -2.65625 11.234375 -2.65625 C 9.179688 -2.65625 7.304688 -3.128906 5.609375 -4.078125 C 3.921875 -5.023438 2.5625 -6.289062 1.53125 -7.875 C 0.507812 -9.46875 0 -11.210938 0 -13.109375 C 0 -15.035156 0.507812 -16.796875 1.53125 -18.390625 C 2.5625 -19.984375 3.921875 -21.25 5.609375 -22.1875 C 7.304688 -23.132812 9.179688 -23.609375 11.234375 -23.609375 C 13.367188 -23.609375 15.347656 -23.132812 17.171875 -22.1875 C 19.003906 -21.25 20.304688 -19.910156 21.078125 -18.171875 C 21.515625 -17.210938 21.570312 -16.429688 21.25 -15.828125 C 20.9375 -15.222656 20.40625 -14.78125 19.65625 -14.5 C 18.914062 -14.21875 18.109375 -14.113281 17.234375 -14.1875 C 16.367188 -14.269531 15.582031 -14.5 14.875 -14.875 C 14.175781 -15.257812 13.726562 -15.816406 13.53125 -16.546875 C 13.289062 -17.390625 13.109375 -18.191406 12.984375 -18.953125 C 12.859375 -19.722656 12.675781 -20.335938 12.4375 -20.796875 C 12.195312 -21.265625 11.796875 -21.414062 11.234375 -21.25 C 10.753906 -21.132812 10.34375 -20.703125 10 -19.953125 C 9.65625 -19.210938 9.390625 -18.359375 9.203125 -17.390625 C 9.023438 -16.421875 8.9375 -15.492188 8.9375 -14.609375 C 8.9375 -12.765625 9.316406 -11.347656 10.078125 -10.359375 C 10.847656 -9.367188 11.835938 -8.789062 13.046875 -8.625 C 14.253906 -8.46875 15.53125 -8.679688 16.875 -9.265625 C 18.226562 -9.847656 19.488281 -10.804688 20.65625 -12.140625 Z M 20.65625 -12.140625 "/></g></g><g style="fill:#292828;fill-opacity:1;"><g transform="translate(73.664642, 47.817688)"><path style="stroke:none" d="M 17.6875 -23.609375 C 19.257812 -23.609375 20.566406 -23.242188 21.609375 -22.515625 C 22.660156 -21.796875 23.507812 -20.851562 24.15625 -19.6875 C 24.800781 -18.519531 25.3125 -17.257812 25.6875 -15.90625 C 26.070312 -14.5625 26.394531 -13.242188 26.65625 -11.953125 C 26.925781 -10.671875 27.191406 -9.535156 27.453125 -8.546875 C 27.710938 -7.554688 28.0625 -6.863281 28.5 -6.46875 C 28.820312 -6.1875 29.164062 -5.941406 29.53125 -5.734375 C 29.894531 -5.535156 30.035156 -5.210938 29.953125 -4.765625 C 29.867188 -4.160156 29.523438 -3.707031 28.921875 -3.40625 C 28.316406 -3.101562 27.59375 -2.898438 26.75 -2.796875 C 25.90625 -2.703125 25.082031 -2.65625 24.28125 -2.65625 C 23.507812 -2.65625 22.585938 -2.804688 21.515625 -3.109375 C 20.453125 -3.410156 19.53125 -3.984375 18.75 -4.828125 C 17.96875 -5.671875 17.578125 -6.921875 17.578125 -8.578125 L 17.578125 -16.90625 C 17.578125 -18.394531 17.351562 -19.378906 16.90625 -19.859375 C 16.46875 -20.347656 15.9375 -20.429688 15.3125 -20.109375 C 14.6875 -19.785156 14.082031 -19.171875 13.5 -18.265625 C 12.914062 -17.359375 12.453125 -16.25 12.109375 -14.9375 C 11.765625 -13.632812 11.675781 -12.238281 11.84375 -10.75 C 11.914062 -9.664062 12.0625 -8.726562 12.28125 -7.9375 C 12.507812 -7.15625 12.785156 -6.601562 13.109375 -6.28125 C 13.390625 -6 13.671875 -5.765625 13.953125 -5.578125 C 14.234375 -5.398438 14.332031 -5.128906 14.25 -4.765625 C 14.164062 -4.160156 13.691406 -3.707031 12.828125 -3.40625 C 11.960938 -3.101562 10.976562 -2.898438 9.875 -2.796875 C 8.769531 -2.703125 7.8125 -2.65625 7 -2.65625 C 6.238281 -2.65625 5.3125 -2.703125 4.21875 -2.796875 C 3.132812 -2.898438 2.179688 -3.101562 1.359375 -3.40625 C 0.535156 -3.707031 0.0820312 -4.160156 0 -4.765625 C -0.0390625 -5.171875 0.0546875 -5.472656 0.296875 -5.671875 C 0.546875 -5.878906 0.8125 -6.125 1.09375 -6.40625 C 1.53125 -6.800781 1.835938 -7.53125 2.015625 -8.59375 C 2.203125 -9.664062 2.316406 -10.863281 2.359375 -12.1875 C 2.398438 -13.519531 2.421875 -14.75 2.421875 -15.875 C 2.421875 -17.851562 2.398438 -19.585938 2.359375 -21.078125 C 2.316406 -22.566406 1.972656 -23.710938 1.328125 -24.515625 C 1.046875 -24.960938 0.742188 -25.328125 0.421875 -25.609375 C 0.0976562 -25.890625 -0.0390625 -26.269531 0 -26.75 C 0.0820312 -27.351562 0.4375 -27.894531 1.0625 -28.375 C 1.6875 -28.863281 2.410156 -29.304688 3.234375 -29.703125 C 4.054688 -30.109375 4.8125 -30.492188 5.5 -30.859375 C 6.019531 -31.140625 6.710938 -31.476562 7.578125 -31.875 C 8.441406 -32.28125 9.285156 -32.59375 10.109375 -32.8125 C 10.941406 -33.039062 11.597656 -33.035156 12.078125 -32.796875 C 12.554688 -32.554688 12.675781 -31.953125 12.4375 -30.984375 C 12.394531 -30.703125 12.3125 -29.925781 12.1875 -28.65625 C 12.070312 -27.382812 11.953125 -25.84375 11.828125 -24.03125 C 11.710938 -22.21875 11.632812 -20.347656 11.59375 -18.421875 C 12.195312 -20.191406 13.125 -21.5 14.375 -22.34375 C 15.625 -23.1875 16.726562 -23.609375 17.6875 -23.609375 Z M 17.6875 -23.609375 "/></g></g><g style="fill:#292929;fill-opacity:1;"><g transform="translate(64.03277, 55.879443)"><path style="stroke:none" d="M 1.4375 0 L 1.4375 -3.625 L 0.078125 -3.625 L 0.078125 -4.28125 L 3.546875 -4.28125 L 3.546875 -3.625 L 2.1875 -3.625 L 2.1875 0 Z M 1.4375 0 "/></g></g><g style="fill:#292929;fill-opacity:1;"><g transform="translate(72.45036, 55.879443)"><path style="stroke:none" d="M 0.046875 0 L 1.65625 -4.28125 L 2.5625 -4.28125 L 4.15625 0 L 3.375 0 L 3.046875 -0.9375 L 1.171875 -0.9375 L 0.84375 0 Z M 1.34375 -1.515625 L 2.875 -1.515625 L 2.109375 -3.625 Z M 1.34375 -1.515625 "/></g></g><g style="fill:#292929;fill-opacity:1;"><g transform="translate(81.458865, 55.879443)"><path style="stroke:none" d="M 0.34375 0 L 0.34375 -4.28125 L 1.09375 -4.28125 L 1.09375 -0.65625 L 3.09375 -0.65625 L 3.09375 0 Z M 0.34375 0 "/></g></g><g style="fill:#292929;fill-opacity:1;"><g transform="translate(89.424217, 55.879443)"><path style="stroke:none" d="M 0.34375 0 L 0.34375 -4.28125 L 3.3125 -4.28125 L 3.3125 -3.65625 L 1.078125 -3.65625 L 1.078125 -2.484375 L 3.0625 -2.484375 L 3.0625 -1.90625 L 1.078125 -1.90625 L 1.078125 -0.625 L 3.375 -0.625 L 3.375 0 Z M 0.34375 0 "/></g></g><g style="fill:#292929;fill-opacity:1;"><g transform="translate(97.733269, 55.879443)"><path style="stroke:none" d="M 2.015625 0.15625 C 1.679688 0.15625 1.375 0.0976562 1.09375 -0.015625 C 0.820312 -0.140625 0.597656 -0.3125 0.421875 -0.53125 C 0.253906 -0.757812 0.15625 -1.019531 0.125 -1.3125 L 0.828125 -1.453125 C 0.847656 -1.253906 0.910156 -1.078125 1.015625 -0.921875 C 1.128906 -0.773438 1.273438 -0.660156 1.453125 -0.578125 C 1.628906 -0.492188 1.820312 -0.453125 2.03125 -0.453125 C 2.332031 -0.453125 2.566406 -0.515625 2.734375 -0.640625 C 2.910156 -0.773438 3 -0.941406 3 -1.140625 C 3 -1.304688 2.9375 -1.4375 2.8125 -1.53125 C 2.6875 -1.632812 2.484375 -1.71875 2.203125 -1.78125 L 1.546875 -1.921875 C 1.128906 -2.015625 0.816406 -2.15625 0.609375 -2.34375 C 0.410156 -2.53125 0.3125 -2.773438 0.3125 -3.078125 C 0.3125 -3.347656 0.378906 -3.582031 0.515625 -3.78125 C 0.648438 -3.988281 0.832031 -4.144531 1.0625 -4.25 C 1.300781 -4.363281 1.578125 -4.421875 1.890625 -4.421875 C 2.171875 -4.421875 2.421875 -4.367188 2.640625 -4.265625 C 2.867188 -4.171875 3.054688 -4.03125 3.203125 -3.84375 C 3.347656 -3.664062 3.441406 -3.453125 3.484375 -3.203125 L 2.78125 -3.046875 C 2.757812 -3.285156 2.664062 -3.472656 2.5 -3.609375 C 2.332031 -3.753906 2.128906 -3.828125 1.890625 -3.828125 C 1.640625 -3.828125 1.4375 -3.765625 1.28125 -3.640625 C 1.132812 -3.515625 1.0625 -3.359375 1.0625 -3.171875 C 1.0625 -3.015625 1.117188 -2.890625 1.234375 -2.796875 C 1.347656 -2.703125 1.523438 -2.628906 1.765625 -2.578125 L 2.421875 -2.4375 C 3.296875 -2.269531 3.734375 -1.875 3.734375 -1.25 C 3.734375 -0.96875 3.660156 -0.722656 3.515625 -0.515625 C 3.378906 -0.304688 3.179688 -0.140625 2.921875 -0.015625 C 2.660156 0.0976562 2.359375 0.15625 2.015625 0.15625 Z M 2.015625 0.15625 "/></g></g></g></svg>